<svg viewBox="0 0 320 260" xmlns="http://www.w3.org/2000/svg" fill="none">
  <defs>
    <linearGradient id="orb" x1="0" y1="0" x2="1" y2="1">
      <stop offset="0" stop-color="#3B82F6"/>
      <stop offset="1" stop-color="#7C3AED"/>
    </linearGradient>
  </defs>

  <ellipse cx="160" cy="150" rx="132" ry="96" fill="#7C3AED" opacity="0.08"/>

  <!-- insight bubble -->
  <rect x="150" y="70" width="126" height="80" rx="20" fill="#FFFFFF"/>
  <rect x="150" y="70" width="126" height="80" rx="20" fill="#7C3AED" opacity="0.03"/>
  <polyline points="166,126 186,110 204,118 226,92 250,100"
            stroke="#1FB574" stroke-width="4" stroke-linecap="round"
            stroke-linejoin="round" fill="none"/>
  <circle cx="250" cy="100" r="4.5" fill="#1FB574"/>
  <rect x="166" y="82" width="60" height="8" rx="4" fill="#1A1C1E" opacity="0.12"/>

  <!-- AI orb -->
  <circle cx="108" cy="150" r="54" fill="url(#orb)"/>
  <circle cx="108" cy="150" r="54" fill="#FFFFFF" opacity="0.06"/>
  <path d="M108 118 Q108 150 140 150 Q108 150 108 182 Q108 150 76 150 Q108 150 108 118 Z"
        fill="#FFFFFF"/>

  <!-- sparkles -->
  <path d="M182 108 Q182 118 192 118 Q182 118 182 128 Q182 118 172 118 Q182 118 182 108 Z"
        fill="#7C3AED" opacity="0.6"/>
  <path d="M60 92 Q60 100 68 100 Q60 100 60 108 Q60 100 52 100 Q60 100 60 92 Z"
        fill="#3B82F6" opacity="0.7"/>
  <circle cx="168" cy="176" r="5" fill="#FDB022" opacity="0.85"/>
</svg>
